# xmcd
#
# Track frame offsets: 
#        150
#        13127
#        25660
#        38507
#        51820
#        65287
#        79917
#        92922
#        105525
#        119802
#        140462
#        154410
#        176252
#        189037
#        205522
#        223377
#        256422
#        276062
#
# Disc length: 3954 seconds
#
# Revision: 2
# Processed by: cddbd v1.5.2PL0 Copyright (c) Steve Scherf et al.
# Submitted via: ExactAudioCopy v0.95b2
#
DISCID=f70f7012
DTITLE=The Four Tops - Anthology Disc 2
DYEAR=1900
DGENRE=Soul
TTITLE0=You Keep Running Away
TTITLE1=Walk Away Renee
TTITLE2=If I Were a Carpenter
TTITLE3=Yesterday's Dreams
TTITLE4=I'm In A Different World
TTITLE5=Can't Seem to Get You Out of My Mind
TTITLE6=Don't Let Him Take Your Love From Me
TTITLE7=It's All In the Game
TTITLE8=Still Water (Love)
TTITLE9=River Deep  Mountain High (With The Supremes)
TTITLE10=Just Seven Numbers (Can Straighten Out My Life)
TTITLE11=In These Changing Times
TTITLE12=You Gotta Have Love in Your Heart (With The Supremes)
TTITLE13=I Can't Quit Your Love
TTITLE14=(It's The Way) Nature Planned It
TTITLE15=Medley  Hey Man, We Got to Get You a Woman
TTITLE16=I Just Can't Walk Away
TTITLE17=Don't Tell Me That It's Over
EXTD=corrected by rlokker@worldonline.nl
EXTT0=
EXTT1=
EXTT2=
EXTT3=
EXTT4=
EXTT5=
EXTT6=
EXTT7=
EXTT8=
EXTT9=
EXTT10=
EXTT11=
EXTT12=
EXTT13=
EXTT14=
EXTT15=
EXTT16=
EXTT17=
PLAYORDER=
